<svg width="59" height="21" viewBox="0 0 59 21" fill="none" xmlns="http://www.w3.org/2000/svg">
<path d="M7.60799 0.686768H11.4907V11.2414C11.4907 12.372 11.2675 13.3241 10.8212 14.0976C10.3898 14.8712 9.77247 15.4588 8.96916 15.8604C8.18072 16.2621 7.26584 16.4629 6.22451 16.4629C4.84102 16.4629 3.68068 16.1282 2.74349 15.4588C1.82117 14.7745 1.21868 13.7778 0.936035 12.4687L4.484 11.7769C4.5435 12.0893 4.64763 12.3571 4.7964 12.5802C4.96003 12.7885 5.15342 12.9447 5.37657 13.0488C5.59971 13.153 5.83773 13.205 6.09062 13.205C6.38814 13.205 6.64848 13.1381 6.87162 13.0042C7.10964 12.8703 7.28815 12.6695 7.40716 12.4017C7.54105 12.134 7.60799 11.8141 7.60799 11.4422V0.686768Z" fill="black"/>
<path d="M20.1379 16.3067L19.8925 14.9232C19.4908 15.3844 19.0743 15.7563 18.6429 16.039C18.2264 16.3216 17.6611 16.4629 16.947 16.4629C16.2925 16.4629 15.69 16.3439 15.1396 16.1059C14.604 15.853 14.1726 15.4885 13.8453 15.0125C13.5181 14.5365 13.3544 13.9563 13.3544 13.272C13.3544 12.3497 13.6817 11.591 14.3362 10.9959C14.9908 10.4009 16.0247 10.0216 17.4379 9.85791L19.8925 9.59014V8.94303C19.8925 8.73477 19.7884 8.5265 19.5801 8.31823C19.3718 8.09509 19.052 7.98352 18.6206 7.98352C18.2338 7.98352 17.8991 8.08765 17.6164 8.29592C17.3338 8.50418 17.1404 8.79427 17.0363 9.16617L13.9346 8.05046C14.2767 7.03888 14.8569 6.2802 15.6751 5.77441C16.4933 5.25375 17.5197 4.99341 18.7545 4.99341C20.3165 4.99341 21.5066 5.38019 22.3247 6.15375C23.1429 6.92731 23.552 7.99096 23.552 9.34469V16.3067H20.1379ZM19.8925 11.6431L18.152 11.8439C17.8098 11.8885 17.5495 12.0001 17.371 12.1786C17.1925 12.3571 17.1032 12.5728 17.1032 12.8257C17.1032 13.0786 17.2073 13.2869 17.4156 13.4505C17.6388 13.6141 17.9437 13.696 18.3305 13.696C18.6429 13.696 18.9107 13.629 19.1338 13.4951C19.3718 13.3464 19.5578 13.1381 19.6917 12.8703C19.8255 12.6026 19.8925 12.2679 19.8925 11.8662V11.6431Z" fill="black"/>
<path d="M32.9172 5.14961H36.9338L30.2841 20.7696H26.513L28.8337 15.6819L24.3709 5.14961H28.4767L30.7081 11.1521L32.9172 5.14961Z" fill="black"/>
<path d="M38.4487 0.686768H42.3314V6.75624H43.4248L48.2223 0.686768H52.819L46.7942 8.34055L53.0645 16.3067H48.2446L43.4471 10.0141H42.3314V16.3067H38.4487V0.686768Z" fill="black"/>
<path d="M56.4735 16.4852C55.7743 16.4852 55.2091 16.2844 54.7776 15.8828C54.3611 15.4662 54.1528 14.9679 54.1528 14.3877C54.1528 13.7927 54.3611 13.2943 54.7776 12.8926C55.2091 12.4761 55.7743 12.2679 56.4735 12.2679C57.1727 12.2679 57.7306 12.4761 58.1471 12.8926C58.5785 13.2943 58.7942 13.7927 58.7942 14.3877C58.7942 14.9679 58.5785 15.4662 58.1471 15.8828C57.7306 16.2844 57.1727 16.4852 56.4735 16.4852Z" fill="#D71243"/>
</svg>
