<?xml version="1.0" encoding="utf-8"?>
<!-- Generator: Adobe Illustrator 28.0.0, SVG Export Plug-In . SVG Version: 6.00 Build 0)  -->
<svg version="1.1" id="icon" xmlns="http://www.w3.org/2000/svg" xmlns:xlink="http://www.w3.org/1999/xlink" x="0px" y="0px"
	 viewBox="0 0 800 800" style="enable-background:new 0 0 800 800;" xml:space="preserve">
<style type="text/css">
	.st0{fill:#FFFFFF;}
	.st1{fill:#CDCDCD;}
</style>
<g id="SVGRepo_bgCarrier">
</g>
<g id="SVGRepo_tracerCarrier">
</g>
<g id="SVGRepo_iconCarrier">
	<rect id="_Transparent_Rectangle_" y="0" class="st0" width="800" height="800"/>
	<path class="st1" d="M610,211.2L588.8,190L190,588.8l21.2,21.2l30-30H550c16.6,0,30-13.4,30-30V241.2L610,211.2z M550,550H271.2
		l116.9-116.9l35.7,35.7c11.7,11.7,30.7,11.7,42.4,0L490,445l60,60V550z M550,462.5l-38.8-38.8c-11.7-11.7-30.7-11.7-42.4,0
		L445,447.5l-35.7-35.7L550,271.2V462.5z"/>
	<path class="st1" d="M250,490v-45l75-74.9l20.6,20.6l21.2-21.2l-20.6-20.6c-11.7-11.7-30.7-11.7-42.4,0L250,402.6V250h240v-30H250
		c-16.6,0-30,13.4-30,30v240H250z"/>
</g>
</svg>
